<svg width="38" height="38" viewBox="0 0 38 38" fill="none" xmlns="http://www.w3.org/2000/svg">
<path d="M28.4714 29.6479C27.3651 28.1832 25.9338 26.9953 24.2901 26.1779C22.6465 25.3605 20.8356 24.9359 18.9999 24.9375C17.1643 24.9359 15.3533 25.3605 13.7097 26.1779C12.0661 26.9953 10.6348 28.1832 9.52844 29.6479M28.4714 29.6479C30.6303 27.7277 32.1529 25.1965 32.8401 22.3901C33.5274 19.5837 33.3454 16.6347 32.3181 13.9341C31.2908 11.2336 29.4669 8.90908 27.0882 7.26894C24.7095 5.6288 21.8885 4.75049 18.9991 4.75049C16.1098 4.75049 13.2888 5.6288 10.9101 7.26894C8.53138 8.90908 6.70746 11.2336 5.6802 13.9341C4.65294 16.6347 4.47088 19.5837 5.15815 22.3901C5.84543 25.1965 7.36956 27.7277 9.52844 29.6479M28.4714 29.6479C25.8653 31.9726 22.4922 33.255 18.9999 33.25C15.5072 33.2554 12.135 31.9729 9.52844 29.6479M23.7499 15.4375C23.7499 16.6973 23.2495 17.9055 22.3587 18.7963C21.4679 19.6871 20.2597 20.1875 18.9999 20.1875C17.7402 20.1875 16.532 19.6871 15.6412 18.7963C14.7504 17.9055 14.2499 16.6973 14.2499 15.4375C14.2499 14.1777 14.7504 12.9696 15.6412 12.0788C16.532 11.188 17.7402 10.6875 18.9999 10.6875C20.2597 10.6875 21.4679 11.188 22.3587 12.0788C23.2495 12.9696 23.7499 14.1777 23.7499 15.4375Z" stroke="#020829" stroke-width="3" stroke-linecap="round" stroke-linejoin="round"/>
</svg>
