<svg width="35" height="35" viewBox="0 0 35 35" fill="none" xmlns="http://www.w3.org/2000/svg">
<path d="M22.9688 15.3125V8.75C22.9688 7.2996 22.3926 5.9086 21.367 4.88301C20.3414 3.85742 18.9504 3.28125 17.5 3.28125C16.0496 3.28125 14.6586 3.85742 13.633 4.88301C12.6074 5.9086 12.0313 7.2996 12.0313 8.75V15.3125M28.5921 12.406L30.434 29.906C30.536 30.8758 29.7777 31.7188 28.8021 31.7188H6.19793C5.96781 31.719 5.74022 31.6708 5.52993 31.5774C5.31965 31.4839 5.13137 31.3473 4.97733 31.1764C4.8233 31.0054 4.70695 30.804 4.63584 30.5851C4.56473 30.3663 4.54046 30.1349 4.56459 29.906L6.40793 12.406C6.45045 12.0029 6.64071 11.6298 6.94204 11.3586C7.24337 11.0874 7.63442 10.9374 8.0398 10.9375H26.9602C27.8002 10.9375 28.5046 11.5719 28.5921 12.406ZM12.5781 15.3125C12.5781 15.4575 12.5205 15.5966 12.418 15.6992C12.3154 15.8018 12.1763 15.8594 12.0313 15.8594C11.8862 15.8594 11.7471 15.8018 11.6446 15.6992C11.542 15.5966 11.4844 15.4575 11.4844 15.3125C11.4844 15.1675 11.542 15.0284 11.6446 14.9258C11.7471 14.8232 11.8862 14.7656 12.0313 14.7656C12.1763 14.7656 12.3154 14.8232 12.418 14.9258C12.5205 15.0284 12.5781 15.1675 12.5781 15.3125ZM23.5156 15.3125C23.5156 15.4575 23.458 15.5966 23.3555 15.6992C23.2529 15.8018 23.1138 15.8594 22.9688 15.8594C22.8237 15.8594 22.6846 15.8018 22.5821 15.6992C22.4795 15.5966 22.4219 15.4575 22.4219 15.3125C22.4219 15.1675 22.4795 15.0284 22.5821 14.9258C22.6846 14.8232 22.8237 14.7656 22.9688 14.7656C23.1138 14.7656 23.2529 14.8232 23.3555 14.9258C23.458 15.0284 23.5156 15.1675 23.5156 15.3125Z" stroke="black" stroke-width="3" stroke-linecap="round" stroke-linejoin="round"/>
</svg>
