<svg width="50" height="50" viewBox="0 0 50 50" fill="none" xmlns="http://www.w3.org/2000/svg">
<path d="M36.6952 32.318C39.721 28.1891 41.0762 23.0699 40.4897 17.9846C39.9033 12.8994 37.4183 8.22309 33.5321 4.89131C29.6458 1.55953 24.6448 -0.182022 19.5297 0.0150747C14.4145 0.212171 9.5624 2.33338 5.94405 5.95432C2.32569 9.57527 0.207956 14.4289 0.0145199 19.5442C-0.178916 24.6595 1.56621 29.6592 4.90077 33.5431C8.23533 37.427 12.9134 39.9086 17.9991 40.4914C23.0847 41.0742 28.2029 39.7153 32.3297 36.6866H32.3266C32.4183 36.8116 32.5203 36.9314 32.6328 37.0459L44.6636 49.0767C45.2496 49.6631 46.0444 49.9927 46.8734 49.993C47.7023 49.9933 48.4974 49.6642 49.0838 49.0783C49.6701 48.4924 49.9997 47.6975 50 46.8686C50.0003 46.0396 49.6713 45.2445 49.0853 44.6582L37.0545 32.6274C36.9429 32.5142 36.8227 32.4129 36.6952 32.318ZM37.5014 20.3059C37.5014 22.563 37.0568 24.7979 36.1931 26.8831C35.3294 28.9683 34.0634 30.8629 32.4675 32.4589C30.8715 34.0548 28.9769 35.3208 26.8917 36.1845C24.8065 37.0483 22.5716 37.4928 20.3145 37.4928C18.0575 37.4928 15.8226 37.0483 13.7374 36.1845C11.6522 35.3208 9.75755 34.0548 8.1616 32.4589C6.56565 30.8629 5.29968 28.9683 4.43596 26.8831C3.57224 24.7979 3.12769 22.563 3.12769 20.3059C3.12769 15.7477 4.93844 11.3762 8.1616 8.15301C11.3848 4.92985 15.7563 3.11909 20.3145 3.11909C24.8728 3.11909 29.2443 4.92985 32.4675 8.15301C35.6906 11.3762 37.5014 15.7477 37.5014 20.3059Z" fill="black"/>
</svg>
