<svg width="10" height="10" viewBox="0 0 20 20" fill="none" xmlns="http://www.w3.org/2000/svg">
<path d="M10.75 1.03004V1.59804C10.75 1.93204 10.898 2.24804 11.155 2.46204L12.223 3.35204C12.665 3.72104 12.758 4.36204 12.439 4.84204L11.929 5.60804C11.6513 6.02425 11.2427 6.33601 10.768 6.49404L10.625 6.54204C10.4636 6.59599 10.3169 6.6864 10.1961 6.80627C10.0754 6.92613 9.9839 7.07221 9.92877 7.23317C9.87363 7.39413 9.85634 7.56563 9.87823 7.73435C9.90012 7.90307 9.96061 8.06448 10.055 8.20604C10.424 8.76104 10.224 9.51304 9.628 9.81104L7 11.125L7.423 12.184C7.50831 12.3991 7.51272 12.6379 7.4354 12.8559C7.35809 13.074 7.2043 13.2567 7.00256 13.37C6.80082 13.4833 6.56483 13.5196 6.33836 13.4722C6.11188 13.4248 5.9103 13.2968 5.771 13.112L5.092 12.206C4.97692 12.0527 4.82456 11.9313 4.64938 11.8534C4.4742 11.7754 4.28201 11.7436 4.09106 11.7608C3.90011 11.7781 3.71673 11.8438 3.55833 11.9518C3.39993 12.0598 3.27176 12.2066 3.186 12.378L2.5 13.75L1.888 13.903M10.75 1.03004C9.16906 0.897371 7.58113 1.18597 6.14714 1.86469C4.71315 2.5434 3.48405 3.58912 2.58439 4.89587C1.68473 6.20262 1.14648 7.72396 1.02419 9.30575C0.901892 10.8875 1.1999 12.4735 1.888 13.903M10.75 1.03004C12.3177 1.16078 13.8237 1.70116 15.118 2.5954C16.4122 3.48964 17.4495 4.7075 18.1263 6.12757C18.8032 7.54765 19.096 9.12034 18.9756 10.6889C18.8552 12.2574 18.3257 13.7669 17.44 15.067L17.263 14.538C17.1136 14.0901 16.8269 13.7004 16.4438 13.4244C16.0606 13.1484 15.6003 12.9999 15.128 13H14.5L14.176 12.676C14.0133 12.513 13.8141 12.391 13.5949 12.3201C13.3757 12.2492 13.1428 12.2315 12.9154 12.2683C12.6881 12.3051 12.4727 12.3955 12.2871 12.5319C12.1015 12.6684 11.951 12.847 11.848 13.053L11.812 13.126C11.7138 13.3227 11.5758 13.4967 11.4067 13.6372C11.2377 13.7777 11.0413 13.8815 10.83 13.942L9.84 14.224C9.29 14.381 8.946 14.926 9.04 15.491L9.113 15.929C9.193 16.403 9.603 16.75 10.083 16.75C10.929 16.75 11.681 17.292 11.948 18.095L12.163 18.738M1.888 13.903C2.78441 15.7668 4.29536 17.265 6.16669 18.1456C8.03802 19.0262 10.1555 19.2354 12.163 18.738M12.163 18.738C14.3129 18.2047 16.1911 16.8982 17.439 15.068M13.75 7.00004C13.75 7.89604 13.357 8.70004 12.734 9.25004" stroke="black" stroke-width="1" stroke-linecap="round" stroke-linejoin="round"/>
</svg>
