<svg width="22" height="18" viewBox="0 0 22 18" fill="none" xmlns="http://www.w3.org/2000/svg">
<path d="M11 6.75004V13.5M11 13.5L8.00001 10.5M11 13.5L14 10.5M5.75001 16.5C4.67944 16.5012 3.64353 16.1207 2.82831 15.4267C2.01309 14.7328 1.47196 13.771 1.30212 12.714C1.13227 11.657 1.34484 10.574 1.90163 9.65964C2.45842 8.74525 3.32297 8.05933 4.34001 7.72505C4.07871 6.38621 4.34877 4.99825 5.09299 3.85506C5.83722 2.71188 6.99718 1.90324 8.32723 1.6004C9.65727 1.29755 11.053 1.52428 12.2188 2.23256C13.3846 2.94084 14.2289 4.07507 14.573 5.39505C15.105 5.22202 15.6748 5.2012 16.218 5.33494C16.7612 5.46868 17.2562 5.75165 17.6471 6.15189C18.038 6.55212 18.3092 7.05368 18.43 7.59991C18.5509 8.14614 18.5166 8.71528 18.331 9.24304C19.1497 9.55575 19.833 10.1451 20.2626 10.909C20.6921 11.6728 20.8407 12.563 20.6826 13.4249C20.5245 14.2869 20.0697 15.0663 19.3971 15.628C18.7244 16.1897 17.8763 16.4982 17 16.5H5.75001Z" stroke="black" stroke-width="1.5" stroke-linecap="round" stroke-linejoin="round"/>
</svg>
