<svg width="20" height="19" viewBox="0 0 20 19" fill="none" xmlns="http://www.w3.org/2000/svg">
<path d="M14.6806 1V13.9917L9.85212 11.6991L5.02369 13.9917V1M14.6806 1H16.29C16.9303 1 17.5444 1.24155 17.9971 1.6715C18.4499 2.10146 18.7042 2.68461 18.7042 3.29266V15.5202C18.7042 16.1282 18.4499 16.7114 17.9971 17.1413C17.5444 17.5713 16.9303 17.8128 16.29 17.8128H3.41422C2.77393 17.8128 2.15986 17.5713 1.70711 17.1413C1.25435 16.7114 1 16.1282 1 15.5202V3.29266C1 2.68461 1.25435 2.10146 1.70711 1.6715C2.15986 1.24155 2.77393 1 3.41422 1H5.02369M14.6806 1H5.02369" stroke="black" stroke-width="1.5" stroke-linecap="round" stroke-linejoin="round"/>
</svg>
